<svg fill="none" height="376" viewBox="0 0 501 376" width="501" xmlns="http://www.w3.org/2000/svg" xmlns:xlink="http://www.w3.org/1999/xlink"><clipPath id="a"><path d="m126.096 83.4673h63.5941v12.0415h-63.5941z"/></clipPath><clipPath id="b"><path d="m142.652 84.9724h47.037v9.03111h-47.037z"/></clipPath><path d="m0 38.4c0-13.4413 0-20.1619 2.61584-25.2958 2.30096-4.51586 5.9725-8.1874 10.48836-10.48836 5.1339-2.61584 11.8545-2.61584 25.2958-2.61584h424.2c13.441 0 20.162 0 25.296 2.61584 4.516 2.30096 8.187 5.9725 10.488 10.48836 2.616 5.1339 2.616 11.8545 2.616 25.2958v299.2c0 13.441 0 20.162-2.616 25.296-2.301 4.516-5.972 8.187-10.488 10.488-5.134 2.616-11.855 2.616-25.296 2.616h-424.2c-13.4413 0-20.1619 0-25.2958-2.616-4.51586-2.301-8.1874-5.972-10.48836-10.488-2.61584-5.134-2.61584-11.855-2.61584-25.296z" fill="#1f9cff"/><path d="m62.5 0h376v376h-376z" fill="#1f9cff"/><path d="m106.223 65.9798c0-5.2683 4.27-9.5391 9.539-9.5391h270.275c5.268 0 9.539 4.2708 9.539 9.5391v244.0422c0 5.268-4.271 9.539-9.539 9.539h-270.275c-5.269 0-9.539-4.271-9.539-9.539z" fill="#fff"/><path clip-rule="evenodd" d="m105.428 65.9793c0-5.7074 4.626-10.334 10.334-10.334h270.275c5.707 0 10.334 4.6267 10.334 10.334v244.0427c0 5.707-4.627 10.334-10.334 10.334h-270.275c-5.708 0-10.334-4.627-10.334-10.334zm10.334-8.7442c-4.83 0-8.744 3.9149-8.744 8.7442v244.0427c0 4.829 3.914 8.744 8.744 8.744h270.275c4.829 0 8.744-3.915 8.744-8.744v-244.0427c0-4.8293-3.915-8.7442-8.744-8.7442z" fill="#b4b3b9" fill-rule="evenodd"/><path d="m231.025 182.039c0-7.463 6.051-13.514 13.514-13.514h117.649c7.464 0 13.514 6.051 13.514 13.514 0 7.463-6.05 13.514-13.514 13.514h-117.649c-7.463 0-13.514-6.051-13.514-13.514z" fill="#f8f4f2"/><path d="m231.025 215.425c0-7.464 6.051-13.514 13.514-13.514h42.131c7.464 0 13.514 6.05 13.514 13.514 0 7.463-6.05 13.513-13.514 13.513h-42.131c-7.463 0-13.514-6.05-13.514-13.513z" fill="#f8f4f2"/><path d="m231.025 238.478c0-1.756 1.424-3.18 3.18-3.18h3.18c1.756 0 3.179 1.424 3.179 3.18v3.179c0 1.757-1.423 3.18-3.179 3.18h-3.18c-1.756 0-3.18-1.423-3.18-3.179z" fill="#f8f4f2"/><path d="m350.548 242.215c.553 0 .96-.28 1.119-.687l.611.325c-.204.521-.833 1.011-1.73 1.011-1.113 0-1.927-.706-1.927-1.736 0-.98.789-1.736 1.927-1.736 1.1 0 1.793.731 1.793 1.691v.267h-2.995c.102.535.579.865 1.202.865zm-.038-2.187c-.528 0-.986.26-1.132.75h2.226c-.051-.35-.465-.75-1.094-.75z" fill="#060316"/><path d="m344.748 242.088.541-.49c.343.446.814.636 1.405.636.528 0 .884-.12.884-.407 0-.292-.286-.299-1.081-.394-.871-.108-1.533-.254-1.533-.96 0-.63.611-1.081 1.577-1.081.802 0 1.425.305 1.711.687l-.49.47c-.248-.331-.699-.528-1.252-.528-.554 0-.814.153-.814.382 0 .235.248.267.979.356.897.108 1.653.216 1.653.992 0 .75-.782 1.113-1.628 1.113-.852 0-1.583-.28-1.952-.776z" fill="#060316"/><path d="m344.401 239.456v3.338h-.763v-.432c-.235.273-.629.502-1.202.502-.909 0-1.45-.617-1.45-1.551v-1.857h.763v1.774c0 .591.293.941.903.941.643 0 .986-.394.986-1.011v-1.704z" fill="#060316"/><path d="m337.04 242.215c.553 0 .96-.28 1.119-.687l.611.325c-.204.521-.833 1.011-1.73 1.011-1.113 0-1.927-.706-1.927-1.736 0-.98.789-1.736 1.927-1.736 1.1 0 1.794.731 1.794 1.691v.267h-2.996c.102.535.579.865 1.202.865zm-.038-2.187c-.528 0-.986.26-1.132.75h2.226c-.051-.35-.464-.75-1.094-.75z" fill="#060316"/><path d="m334.969 239.488v.763c-.152-.038-.222-.057-.394-.057-.763 0-1.259.324-1.259 1.119v1.482h-.763v-3.339h.763v.604c.286-.452.738-.623 1.278-.623.153 0 .28.025.375.051z" fill="#060316"/><path d="m331.813 239.456v3.338h-.763v-.432c-.235.273-.629.502-1.202.502-.909 0-1.45-.617-1.45-1.551v-1.857h.764v1.774c0 .591.292.941.903.941.642 0 .985-.394.985-1.011v-1.704z" fill="#060316"/><path d="m325.66 241.65v-1.545h-.84v-.649h.84v-.979h.75v.979h1.469v.649h-1.469v1.475c0 .433.235.566.738.566.28 0 .509-.07.731-.139l.127.648c-.248.096-.655.178-.992.178-.712 0-1.354-.286-1.354-1.183z" fill="#060316"/><path d="m324.454 239.456v3.339h-.763v-.433c-.235.274-.63.502-1.202.502-.909 0-1.45-.616-1.45-1.551v-1.857h.763v1.774c0 .592.293.941.903.941.643 0 .986-.394.986-1.011v-1.704z" fill="#060316"/><path d="m318.572 239.392c0-.89.623-1.233 1.463-1.233.235 0 .559.031.763.108l-.128.667c-.235-.057-.381-.076-.635-.076-.477 0-.719.146-.719.56v.038h1.316v.649h-1.316v2.69h-.744v-2.69h-.84v-.649h.84z" fill="#060316"/><path d="m316.022 239.488v.763c-.153-.038-.223-.057-.394-.057-.763 0-1.259.324-1.259 1.119v1.482h-.764v-3.339h.764v.604c.286-.452.737-.623 1.278-.623.152 0 .28.025.375.051z" fill="#060316"/><path d="m311.168 239.392c1.055 0 1.901.699 1.901 1.736 0 1.036-.846 1.736-1.901 1.736-1.062 0-1.908-.7-1.908-1.736 0-1.037.846-1.736 1.908-1.736zm0 2.817c.648 0 1.17-.401 1.17-1.081 0-.681-.522-1.081-1.17-1.081-.655 0-1.177.4-1.177 1.081 0 .68.522 1.081 1.177 1.081z" fill="#060316"/><path d="m307.195 239.392c0-.89.623-1.233 1.463-1.233.235 0 .559.031.763.108l-.127.667c-.236-.057-.382-.076-.636-.076-.477 0-.719.146-.719.56v.038h1.316v.649h-1.316v2.69h-.744v-2.69h-.84v-.649h.84z" fill="#060316"/><path d="m301.039 242.088.541-.49c.343.446.814.636 1.405.636.528 0 .884-.12.884-.407 0-.292-.286-.299-1.081-.394-.871-.108-1.533-.254-1.533-.96 0-.63.611-1.081 1.577-1.081.802 0 1.425.305 1.711.687l-.49.47c-.248-.331-.699-.528-1.252-.528-.554 0-.814.153-.814.382 0 .235.248.267.979.356.897.108 1.653.216 1.653.992 0 .75-.782 1.113-1.628 1.113-.852 0-1.583-.28-1.952-.776z" fill="#060316"/><path d="m300.695 238.228v4.566h-.763v-4.566z" fill="#060316"/><path d="m298.414 239.011v-.783h.789v.783zm.776.445v3.338h-.763v-3.338z" fill="#060316"/><path d="m295.449 242.864c-.77 0-1.387-.35-1.387-1.037 0-.585.484-.934 1.285-1.03l1.45-.172v-.025c0-.318-.28-.56-.903-.56-.515 0-.967.236-1.094.56l-.629-.28c.209-.559.941-.928 1.748-.928 1.031 0 1.616.426 1.616 1.221v1.405c0 .191.089.274.496.185v.591c-.712.146-1.037-.121-1.145-.452-.299.306-.814.522-1.437.522zm1.348-1.361v-.28l-1.323.159c-.445.051-.667.159-.667.439s.267.426.705.426c.573 0 1.285-.254 1.285-.744z" fill="#060316"/><path d="m291.445 241.65v-1.545h-.84v-.649h.84v-.979h.75v.979h1.469v.649h-1.469v1.475c0 .433.236.566.738.566.28 0 .509-.07.731-.139l.128.648c-.248.096-.655.178-.993.178-.712 0-1.354-.286-1.354-1.183z" fill="#060316"/><path d="m288.724 242.215c.553 0 .96-.28 1.119-.687l.611.325c-.204.521-.834 1.011-1.73 1.011-1.113 0-1.927-.706-1.927-1.736 0-.98.788-1.736 1.927-1.736 1.1 0 1.793.731 1.793 1.691v.267h-2.995c.102.535.579.865 1.202.865zm-.038-2.187c-.528 0-.986.26-1.132.75h2.225c-.05-.35-.464-.75-1.093-.75z" fill="#060316"/><path d="m285.498 242.375c-.242.26-.687.489-1.297.489-1.151 0-1.832-.788-1.832-1.736 0-.947.681-1.736 1.832-1.736.61 0 1.055.229 1.297.49v-1.654h.763v4.566h-.763zm.038-1.272c0-.611-.534-1.075-1.227-1.075-.655 0-1.215.394-1.215 1.1s.56 1.1 1.215 1.1c.693 0 1.227-.464 1.227-1.074z" fill="#060316"/><path d="m279.418 242.375c-.242.26-.687.489-1.297.489-1.151 0-1.832-.788-1.832-1.736 0-.947.681-1.736 1.832-1.736.61 0 1.055.229 1.297.49v-1.654h.763v4.566h-.763zm.038-1.272c0-.611-.534-1.075-1.227-1.075-.655 0-1.215.394-1.215 1.1s.56 1.1 1.215 1.1c.693 0 1.227-.464 1.227-1.074z" fill="#060316"/><path d="m276.145 239.488v.763c-.153-.038-.222-.057-.394-.057-.763 0-1.259.324-1.259 1.119v1.482h-.763v-3.339h.763v.604c.286-.452.737-.623 1.278-.623.153 0 .28.025.375.051z" fill="#060316"/><path d="m270.752 242.864c-.77 0-1.387-.35-1.387-1.037 0-.585.484-.934 1.285-1.03l1.45-.172v-.025c0-.318-.28-.56-.903-.56-.515 0-.967.236-1.094.56l-.63-.28c.21-.559.942-.928 1.749-.928 1.03 0 1.615.426 1.615 1.221v1.405c0 .191.09.274.497.185v.591c-.713.146-1.037-.121-1.145-.452-.299.306-.814.522-1.437.522zm1.348-1.361v-.28l-1.323.159c-.445.051-.668.159-.668.439s.267.426.706.426c.573 0 1.285-.254 1.285-.744z" fill="#060316"/><path d="m265.484 241.128c0-1.03.853-1.736 1.94-1.736.871 0 1.494.502 1.704 1.036l-.61.35c-.134-.388-.553-.738-1.1-.738-.681 0-1.202.407-1.202 1.088 0 .68.521 1.087 1.202 1.087.547 0 .966-.349 1.1-.737l.604.362c-.216.528-.827 1.024-1.698 1.024-1.087 0-1.94-.706-1.94-1.736z" fill="#060316"/><path d="m261.714 242.215c.553 0 .96-.28 1.119-.687l.611.325c-.204.521-.833 1.011-1.73 1.011-1.113 0-1.927-.706-1.927-1.736 0-.98.789-1.736 1.927-1.736 1.1 0 1.793.731 1.793 1.691v.267h-2.995c.102.535.579.865 1.202.865zm-.038-2.187c-.528 0-.986.26-1.132.75h2.226c-.051-.35-.465-.75-1.094-.75z" fill="#060316"/><path d="m258.195 242.794h-.77l-1.659-3.338h.845l1.209 2.499 1.202-2.499h.826z" fill="#060316"/><path d="m253.412 242.864c-.77 0-1.387-.35-1.387-1.037 0-.585.484-.934 1.285-1.03l1.45-.172v-.025c0-.318-.28-.56-.903-.56-.515 0-.967.236-1.094.56l-.629-.28c.209-.559.941-.928 1.748-.928 1.031 0 1.616.426 1.616 1.221v1.405c0 .191.089.274.496.185v.591c-.713.146-1.037-.121-1.145-.452-.299.306-.814.522-1.437.522zm1.348-1.361v-.28l-1.323.159c-.445.051-.668.159-.668.439s.268.426.706.426c.573 0 1.285-.254 1.285-.744z" fill="#060316"/><path d="m246.865 241.707.585-.54c.515.763 1.342.992 2.029.992.82 0 1.412-.274 1.412-.681 0-.483-.382-.521-1.717-.674-1.164-.133-1.991-.324-1.991-1.215 0-.826.814-1.43 2.086-1.43 1.011 0 1.927.381 2.315.979l-.585.49c-.331-.49-.967-.764-1.762-.764-.903 0-1.284.312-1.284.643 0 .362.292.451 1.488.591 1.386.159 2.245.312 2.245 1.285s-.986 1.482-2.226 1.482c-1.126 0-2.169-.465-2.595-1.158z" fill="#060316"/><path d="m306.543 215.425c0-7.464 6.05-13.514 13.514-13.514h42.131c7.463 0 13.514 6.05 13.514 13.514 0 7.463-6.051 13.513-13.514 13.513h-42.131c-7.464 0-13.514-6.05-13.514-13.513z" fill="#f8f4f2"/><path d="m231.025 148.652c0-7.464 6.051-13.514 13.514-13.514h117.649c7.464 0 13.514 6.05 13.514 13.514 0 7.463-6.05 13.514-13.514 13.514h-117.649c-7.463 0-13.514-6.051-13.514-13.514z" fill="#f8f4f2"/><path d="m231.025 111.29c0-5.268 4.271-9.539 9.54-9.539h12.718c5.269 0 9.539 4.271 9.539 9.539v7.949c0 5.269-4.27 9.539-9.539 9.539h-12.719c-5.268 0-9.539-4.27-9.539-9.539z" fill="#f8f4f2"/><path d="m253.482 109.467h-13.116c-.58 0-1.136.23-1.546.64s-.64.966-.64 1.546v8.016c0 .579.23 1.135.64 1.545s.966.641 1.546.641h13.116c.58 0 1.136-.231 1.546-.641s.64-.966.64-1.545v-8.016c0-.58-.23-1.136-.64-1.546s-.966-.64-1.546-.64zm-13.116 1.457h13.116c.193 0 .379.077.515.214.137.136.214.322.214.515v.729c0 .096-.039.189-.107.257-.068.069-.161.107-.258.107h-13.845c-.096 0-.189-.038-.257-.107-.069-.068-.107-.161-.107-.257v-.729c0-.193.077-.379.213-.515.137-.137.322-.214.516-.214zm13.116 9.473h-13.116c-.194 0-.379-.076-.516-.213-.136-.137-.213-.322-.213-.515v-4.373c0-.096.038-.189.107-.257.068-.068.161-.107.257-.107h13.845c.097 0 .19.039.258.107s.107.161.107.257v4.373c0 .193-.077.378-.214.515-.136.137-.322.213-.515.213z" fill="#4b007c"/><path d="m268.387 111.29c0-5.268 4.271-9.539 9.539-9.539h12.719c5.268 0 9.539 4.271 9.539 9.539v7.949c0 5.269-4.271 9.539-9.539 9.539h-12.719c-5.268 0-9.539-4.27-9.539-9.539z" fill="#f8f4f2"/><path d="m281.798 111.942-2.705 6.663h-1.766l-1.331-5.318c-.081-.327-.151-.447-.397-.585-.402-.225-1.065-.436-1.648-.567l.04-.193h2.842c.362 0 .687.248.77.679l.703 3.856 1.738-4.536zm6.918 4.487c.007-1.758-2.356-1.855-2.34-2.641.005-.239.225-.493.708-.558.239-.032.899-.057 1.647.298l.293-1.413c-.402-.15-.919-.295-1.562-.295-1.651 0-2.813.906-2.822 2.202-.011.96.829 1.495 1.462 1.814.65.326.869.536.866.828-.004.447-.519.644-1 .652-.839.013-1.326-.234-1.714-.421l-.303 1.46c.39.185 1.11.346 1.857.354 1.755 0 2.902-.894 2.908-2.28zm4.359 2.176h1.544l-1.348-6.663h-1.426c-.32 0-.591.192-.71.489l-2.506 6.174h1.753l.348-.995h2.143zm-1.864-2.361.879-2.502.506 2.502zm-7.026-4.302-1.381 6.663h-1.67l1.381-6.663z" fill="#00579e"/><path d="m306.543 111.29c0-5.268 4.271-9.539 9.539-9.539h12.719c5.268 0 9.539 4.271 9.539 9.539v7.949c0 5.269-4.271 9.539-9.539 9.539h-12.719c-5.268 0-9.539-4.27-9.539-9.539z" fill="#f8f4f2"/><path d="m315.633 112.261c-.252.297-.654.531-1.057.498-.05-.402.147-.828.377-1.092.252-.305.692-.523 1.049-.539.041.418-.122.828-.369 1.133zm.364.577c-.582-.033-1.081.331-1.358.331-.281 0-.704-.314-1.165-.305-.6.008-1.158.347-1.464.886-.629 1.079-.163 2.677.445 3.556.297.435.654.911 1.123.895.445-.017.621-.289 1.157-.289.541 0 .696.289 1.166.28.486-.008.792-.435 1.09-.87.34-.493.478-.974.486-.999-.008-.009-.939-.364-.947-1.435-.009-.895.734-1.322.767-1.347-.419-.619-1.073-.686-1.3-.703zm3.367-1.213v6.521h1.015v-2.229h1.404c1.283 0 2.184-.878 2.184-2.15s-.884-2.142-2.15-2.142zm1.015.854h1.169c.881 0 1.384.468 1.384 1.292s-.503 1.297-1.388 1.297h-1.165zm5.441 5.717c.638 0 1.229-.322 1.497-.832h.021v.782h.939v-3.246c0-.941-.755-1.547-1.916-1.547-1.077 0-1.874.615-1.903 1.46h.914c.075-.402.448-.665.96-.665.62 0 .968.288.968.819v.36l-1.266.075c-1.178.072-1.815.553-1.815 1.389 0 .845.658 1.405 1.601 1.405zm.273-.773c-.541 0-.885-.26-.885-.657 0-.41.331-.648.965-.686l1.127-.071v.368c0 .611-.52 1.046-1.207 1.046zm3.438 2.497c.989 0 1.454-.377 1.861-1.519l1.782-4.985h-1.031l-1.195 3.852h-.021l-1.195-3.852h-1.061l1.719 4.747-.092.289c-.155.489-.407.677-.855.677-.08 0-.235-.008-.298-.017v.783c.059.016.31.025.386.025z" fill="#060316"/><path d="m343.906 111.29c0-5.268 4.271-9.539 9.539-9.539h12.719c5.268 0 9.539 4.271 9.539 9.539v7.949c0 5.269-4.271 9.539-9.539 9.539h-12.719c-5.268 0-9.539-4.27-9.539-9.539z" fill="#f8f4f2"/><path d="m358.28 111.451c-.087 0-.171.031-.238.088-.066.056-.11.135-.124.221l-.602 3.817c.028-.178.182-.309.363-.309h1.763c1.775 0 3.281-1.295 3.556-3.05.021-.131.033-.263.035-.395-.451-.237-.981-.372-1.561-.372z" fill="#001c64"/><path d="m363.036 111.818c-.002.133-.014.265-.034.396-.275 1.755-1.782 3.05-3.556 3.05h-1.764c-.18 0-.334.131-.362.309l-.554 3.508-.346 2.2c-.007.043-.005.086.007.128.012.041.032.08.06.112.028.033.063.059.102.077s.082.028.125.028h1.914c.087 0 .172-.032.238-.088.067-.057.111-.136.124-.222l.504-3.198c.014-.086.058-.165.125-.222.066-.056.151-.088.238-.088h1.127c1.775 0 3.281-1.294 3.556-3.049.196-1.245-.432-2.379-1.504-2.941z" fill="#0070e0"/><path d="m356.106 108.906c-.18 0-.334.131-.362.309l-1.502 9.525c-.029.181.111.345.294.345h2.228l.553-3.508.602-3.817c.013-.086.057-.165.124-.222.066-.056.151-.088.238-.088h3.191c.581 0 1.111.136 1.562.372.031-1.597-1.288-2.916-3.1-2.916z" fill="#003087"/><g fill="#060316"><path d="m296.779 152.022v-4.933h.733v.745h.051c.09-.244.253-.442.488-.594.236-.152.501-.228.797-.228.055 0 .125.001.208.003.084.002.147.005.19.01v.77c-.026-.006-.085-.016-.177-.029-.09-.014-.185-.022-.286-.022-.239 0-.453.05-.642.151-.186.098-.334.235-.443.411-.107.174-.161.372-.161.594v3.122z"/><path d="m293.583 152.124c-.476 0-.886-.105-1.23-.315-.343-.212-.607-.507-.794-.886-.184-.382-.276-.825-.276-1.33s.092-.951.276-1.336c.187-.388.446-.69.778-.906.334-.218.723-.328 1.169-.328.257 0 .51.043.761.129.25.086.479.225.684.417.206.191.369.444.491.758.123.315.184.703.184 1.163v.321h-3.803v-.655h3.032c0-.278-.056-.527-.167-.745-.11-.218-.266-.391-.469-.517-.201-.126-.439-.19-.713-.19-.302 0-.563.075-.784.225-.218.148-.386.341-.504.578-.118.238-.177.493-.177.765v.436c0 .373.064.689.193.948.131.257.311.453.543.588.231.132.5.199.806.199.199 0 .379-.028.539-.084.163-.057.303-.143.421-.257.118-.115.209-.259.273-.43l.732.206c-.077.248-.206.466-.388.655-.182.186-.407.332-.675.437-.267.102-.568.154-.902.154z"/><path d="m286 152.022v-6.578h.758v2.428h.064c.056-.085.133-.195.231-.327.101-.135.245-.255.431-.36.188-.107.443-.161.764-.161.416 0 .782.104 1.099.312s.564.502.742.883c.177.381.266.831.266 1.349 0 .522-.089.975-.266 1.359-.178.381-.424.676-.739.886-.315.208-.678.312-1.089.312-.317 0-.571-.053-.761-.158-.191-.107-.337-.228-.44-.363-.103-.137-.182-.25-.238-.34h-.09v.758zm.745-2.467c0 .373.055.701.164.986.109.283.269.504.478.665.21.158.467.238.771.238.317 0 .582-.084.794-.251.214-.169.374-.396.481-.681.11-.287.164-.606.164-.957 0-.347-.053-.659-.16-.938-.105-.28-.265-.502-.479-.664-.212-.165-.479-.248-.8-.248-.308 0-.567.078-.777.235-.21.154-.368.37-.475.648-.107.277-.161.599-.161.967z"/><path d="m278.035 152.021v-4.933h.732v.771h.065c.102-.264.268-.468.498-.614.229-.148.504-.222.825-.222.325 0 .596.074.813.222.218.146.388.35.51.614h.052c.126-.255.315-.458.568-.608.253-.152.556-.228.909-.228.441 0 .802.139 1.082.415.281.274.421.701.421 1.281v3.302h-.758v-3.302c0-.364-.099-.624-.299-.78-.199-.157-.433-.235-.703-.235-.347 0-.616.105-.806.315-.191.208-.286.471-.286.79v3.212h-.771v-3.379c0-.28-.091-.506-.273-.678-.182-.173-.416-.26-.703-.26-.197 0-.381.053-.553.158-.169.105-.306.25-.411.437-.102.184-.154.397-.154.639v3.083z"/><path d="m275.89 150.005v-2.916h.758v4.933h-.758v-.835h-.051c-.116.251-.296.464-.54.639-.244.174-.552.26-.925.26-.308 0-.582-.067-.822-.202-.24-.137-.428-.343-.565-.617-.137-.276-.206-.624-.206-1.043v-3.135h.758v3.083c0 .36.101.647.302.861.204.214.463.321.777.321.189 0 .38-.048.575-.144.197-.097.362-.245.495-.444.135-.199.202-.452.202-.761z"/><path d="m268.248 149.053v2.968h-.758v-4.933h.733v.771h.064c.115-.251.291-.452.526-.604.236-.154.54-.232.913-.232.334 0 .626.069.876.206.251.135.446.34.585.617.139.274.209.621.209 1.04v3.135h-.758v-3.083c0-.388-.101-.69-.302-.906-.201-.218-.478-.328-.829-.328-.242 0-.458.053-.649.158-.188.105-.337.258-.446.459s-.164.445-.164.732z"/><path d="m261.192 152.125c-.411 0-.774-.104-1.089-.312-.315-.21-.561-.505-.739-.886-.177-.384-.266-.837-.266-1.359 0-.518.089-.968.266-1.349.178-.381.425-.675.742-.883s.683-.312 1.099-.312c.321 0 .575.054.761.161.188.105.332.225.43.36.101.132.179.242.235.327h.064v-2.428h.758v6.578h-.732v-.758h-.09c-.056.09-.135.203-.238.34-.103.135-.249.256-.44.363-.191.105-.444.158-.761.158zm.103-.681c.304 0 .561-.08.77-.238.21-.161.37-.382.479-.665.109-.285.164-.613.164-.986 0-.368-.054-.69-.161-.967-.107-.278-.265-.494-.475-.648-.21-.157-.469-.235-.777-.235-.322 0-.589.083-.803.248-.212.162-.372.384-.479.664-.105.279-.157.591-.157.938 0 .351.053.67.16.957.109.285.27.512.482.681.214.167.48.251.797.251z"/><path d="m256.113 152.022v-4.933h.733v.745h.051c.09-.244.253-.442.488-.594.236-.152.501-.228.797-.228.055 0 .125.001.208.003.084.002.147.005.19.01v.77c-.026-.006-.085-.016-.177-.029-.09-.014-.185-.022-.286-.022-.239 0-.453.05-.642.151-.186.098-.334.235-.443.411-.107.174-.161.372-.161.594v3.122z"/><path d="m252.47 152.137c-.313 0-.596-.059-.851-.177-.255-.12-.457-.292-.607-.517-.15-.227-.225-.501-.225-.822 0-.283.056-.512.167-.688.111-.177.26-.317.447-.417.186-.101.391-.176.616-.225.227-.051.455-.092.684-.122.3-.039.543-.068.729-.087.189-.021.326-.057.412-.106.087-.049.131-.135.131-.257v-.025c0-.317-.087-.564-.26-.739-.171-.176-.431-.264-.78-.264-.362 0-.646.08-.852.238-.205.159-.35.328-.433.508l-.72-.257c.129-.3.3-.533.514-.7.217-.17.452-.287.707-.354.257-.068.51-.103.758-.103.158 0 .34.02.546.058.208.037.408.113.6.228.195.116.357.29.485.524.129.233.193.546.193.938v3.25h-.758v-.668h-.038c-.052.107-.137.222-.257.344s-.28.225-.479.311-.442.129-.729.129zm.116-.681c.299 0 .552-.059.758-.177.207-.118.364-.27.469-.456.107-.186.16-.382.16-.588v-.694c-.032.039-.103.074-.212.106-.107.03-.231.057-.372.081-.14.021-.275.04-.408.058-.131.015-.237.027-.318.038-.197.026-.381.068-.553.125-.169.056-.306.141-.411.254-.103.111-.154.263-.154.456 0 .264.098.463.292.598.197.132.447.199.749.199z"/><path d="m249.833 147.499h-.796c-.047-.229-.13-.43-.248-.603-.115-.174-.257-.319-.424-.437-.164-.12-.348-.21-.549-.27s-.411-.09-.629-.09c-.399 0-.759.101-1.083.302-.321.201-.577.498-.767.89-.189.392-.283.872-.283 1.442 0 .569.094 1.05.283 1.442.19.392.446.688.767.89.324.201.684.301 1.083.301.218 0 .428-.029.629-.089s.385-.149.549-.267c.167-.12.309-.267.424-.44.118-.176.201-.377.248-.604h.796c-.06.336-.169.637-.327.903-.159.265-.356.491-.591.677-.236.184-.5.325-.794.421-.291.096-.602.145-.934.145-.561 0-1.06-.137-1.497-.411-.437-.275-.78-.664-1.031-1.17-.251-.505-.376-1.104-.376-1.798s.125-1.293.376-1.799c.251-.505.594-.895 1.031-1.169s.936-.411 1.497-.411c.332 0 .643.048.934.145.294.096.558.237.794.423.235.185.432.409.591.675.158.263.267.564.327.902z"/><path d="m288.713 185.409v-4.933h.732v.745h.052c.09-.244.252-.442.488-.594.235-.152.501-.228.796-.228.056 0 .126.001.209.003.084.002.147.005.19.01v.771c-.026-.007-.085-.016-.177-.029-.09-.015-.185-.023-.286-.023-.24 0-.454.051-.642.151-.187.099-.334.236-.444.411-.107.174-.16.372-.16.594v3.122z"/><path d="m285.518 185.511c-.475 0-.885-.105-1.23-.315-.342-.212-.607-.507-.793-.886-.184-.382-.276-.825-.276-1.33s.092-.951.276-1.336c.186-.388.445-.69.777-.906.334-.218.724-.327 1.169-.327.257 0 .511.042.761.128.251.086.479.225.685.418.205.19.369.443.491.758.122.314.183.702.183 1.162v.321h-3.803v-.655h3.032c0-.278-.055-.527-.167-.745-.109-.218-.265-.391-.469-.517-.201-.126-.439-.19-.713-.19-.302 0-.563.075-.783.225-.219.148-.387.341-.505.578-.117.238-.176.493-.176.765v.437c0 .372.064.688.192.947.131.257.312.453.543.588.231.133.5.199.806.199.2 0 .379-.028.54-.084.163-.057.303-.143.421-.257.117-.115.208-.259.273-.43l.732.206c-.077.248-.207.466-.389.655-.182.186-.406.332-.674.437-.268.102-.569.154-.903.154z"/><path d="m279.696 185.512c-.411 0-.774-.104-1.089-.312-.315-.21-.561-.505-.739-.886-.178-.383-.266-.836-.266-1.359 0-.518.088-.968.266-1.349s.425-.675.742-.883.683-.312 1.099-.312c.321 0 .574.054.761.161.188.105.332.225.43.36.101.133.179.242.235.327h.064v-2.428h.758v6.578h-.733v-.758h-.089c-.056.09-.135.203-.238.341-.103.134-.25.255-.44.362-.191.105-.444.158-.761.158zm.102-.681c.304 0 .561-.079.771-.238.21-.16.37-.382.479-.665.109-.284.164-.613.164-.986 0-.368-.054-.69-.161-.966-.107-.279-.265-.495-.475-.649-.21-.156-.469-.235-.778-.235-.321 0-.588.083-.803.248-.211.162-.371.384-.478.665-.105.278-.157.591-.157.937 0 .352.053.671.16.957.109.285.27.512.482.681.214.167.48.251.796.251z"/><path d="m276.445 178.831v6.578h-.757v-6.578z"/><path d="m272.294 185.511c-.445 0-.836-.106-1.172-.318-.334-.212-.596-.509-.784-.89-.186-.381-.279-.826-.279-1.336 0-.514.093-.962.279-1.346.188-.383.45-.681.784-.893.336-.211.727-.317 1.172-.317s.835.106 1.169.317c.336.212.597.51.784.893.188.384.282.832.282 1.346 0 .51-.094.955-.282 1.336-.187.381-.448.678-.784.89-.334.212-.724.318-1.169.318zm0-.681c.338 0 .617-.087.835-.26.218-.174.38-.402.485-.684.105-.283.157-.589.157-.919s-.052-.637-.157-.922c-.105-.284-.267-.515-.485-.69-.218-.176-.497-.264-.835-.264s-.617.088-.835.264c-.218.175-.38.406-.485.69-.105.285-.157.592-.157.922s.052.636.157.919c.105.282.267.51.485.684.218.173.497.26.835.26z"/><path d="m265.703 182.441v2.968h-.758v-6.578h.758v2.416h.065c.115-.255.289-.458.52-.607.233-.152.544-.229.931-.229.336 0 .631.068.884.203.252.133.448.337.587.613.142.274.212.623.212 1.047v3.135h-.758v-3.083c0-.392-.101-.695-.305-.909-.201-.216-.481-.325-.838-.325-.249 0-.471.053-.668.158-.195.105-.349.258-.463.459-.111.201-.167.445-.167.732z"/><path d="m261.192 185.512c-.411 0-.774-.104-1.089-.312-.315-.21-.561-.505-.739-.886-.177-.383-.266-.836-.266-1.359 0-.518.089-.968.266-1.349.178-.381.425-.675.742-.883s.683-.312 1.099-.312c.321 0 .575.054.761.161.188.105.332.225.43.36.101.133.179.242.235.327h.064v-2.428h.758v6.578h-.732v-.758h-.09c-.056.09-.135.203-.238.341-.103.134-.249.255-.44.362-.191.105-.444.158-.761.158zm.103-.681c.304 0 .561-.079.77-.238.21-.16.37-.382.479-.665.109-.284.164-.613.164-.986 0-.368-.054-.69-.161-.966-.107-.279-.265-.495-.475-.649-.21-.156-.469-.235-.777-.235-.322 0-.589.083-.803.248-.212.162-.372.384-.479.665-.105.278-.157.591-.157.937 0 .352.053.671.16.957.109.285.27.512.482.681.214.167.48.251.797.251z"/><path d="m256.113 185.409v-4.933h.733v.745h.051c.09-.244.253-.442.488-.594.236-.152.501-.228.797-.228.055 0 .125.001.208.003.084.002.147.005.19.01v.771c-.026-.007-.085-.016-.177-.029-.09-.015-.185-.023-.286-.023-.239 0-.453.051-.642.151-.186.099-.334.236-.443.411-.107.174-.161.372-.161.594v3.122z"/><path d="m252.47 185.524c-.313 0-.596-.059-.851-.177-.255-.12-.457-.292-.607-.517-.15-.227-.225-.501-.225-.822 0-.283.056-.512.167-.688.111-.177.26-.316.447-.417.186-.101.391-.176.616-.225.227-.051.455-.092.684-.122.3-.039.543-.067.729-.087.189-.021.326-.056.412-.106.087-.049.131-.135.131-.257v-.025c0-.317-.087-.563-.26-.739-.171-.176-.431-.263-.78-.263-.362 0-.646.079-.852.237-.205.159-.35.328-.433.508l-.72-.257c.129-.3.3-.533.514-.7.217-.17.452-.287.707-.354.257-.068.51-.102.758-.102.158 0 .34.019.546.057.208.037.408.113.6.228.195.116.357.291.485.524.129.233.193.546.193.938v3.25h-.758v-.668h-.038c-.052.107-.137.222-.257.344s-.28.226-.479.311c-.199.086-.442.129-.729.129zm.116-.681c.299 0 .552-.059.758-.177.207-.118.364-.27.469-.456.107-.186.16-.382.16-.588v-.693c-.032.038-.103.073-.212.106-.107.03-.231.056-.372.08-.14.021-.275.041-.408.058-.131.015-.237.027-.318.038-.197.026-.381.068-.553.125-.169.056-.306.141-.411.254-.103.112-.154.264-.154.456 0 .264.098.463.292.598.197.132.447.199.749.199z"/><path d="m249.833 180.887h-.796c-.047-.23-.13-.431-.248-.604-.115-.174-.257-.319-.424-.437-.164-.12-.348-.21-.549-.27s-.411-.09-.629-.09c-.399 0-.759.101-1.083.302-.321.201-.577.498-.767.89-.189.392-.283.872-.283 1.442 0 .569.094 1.05.283 1.442.19.392.446.688.767.89.324.201.684.302 1.083.302.218 0 .428-.03.629-.09s.385-.149.549-.267c.167-.12.309-.267.424-.44.118-.176.201-.377.248-.604h.796c-.06.336-.169.637-.327.903-.159.265-.356.491-.591.677-.236.185-.5.325-.794.421-.291.097-.602.145-.934.145-.561 0-1.06-.137-1.497-.411s-.78-.664-1.031-1.17c-.251-.505-.376-1.104-.376-1.798s.125-1.293.376-1.799c.251-.505.594-.895 1.031-1.169s.936-.411 1.497-.411c.332 0 .643.048.934.145.294.096.558.237.794.424.235.184.432.409.591.674.158.263.267.564.327.903z"/><path d="m266.158 213.1h.797l1.594 2.682h.067l1.594-2.682h.797l-2.077 3.378v2.368h-.695v-2.368z"/><path d="m260.902 213.1h.797l1.594 2.682h.067l1.594-2.682h.797l-2.076 3.378v2.368h-.696v-2.368z"/><path d="m260.522 212.831-1.851 6.88h-.607l1.852-6.88z"/><path d="m251.551 213.1h.83l1.953 4.77h.068l1.953-4.77h.83v5.746h-.651v-4.366h-.056l-1.796 4.366h-.628l-1.796-4.366h-.056v4.366h-.651z"/><path d="m244.521 213.1h.831l1.953 4.77h.067l1.953-4.77h.831v5.746h-.651v-4.366h-.056l-1.796 4.366h-.629l-1.795-4.366h-.057v4.366h-.651z"/><path d="m330.835 213.1 1.706 4.837h.067l1.706-4.837h.73l-2.11 5.746h-.718l-2.111-5.746z"/><path d="m325.495 213.1 1.706 4.837h.068l1.706-4.837h.729l-2.11 5.746h-.718l-2.11-5.746z"/><path d="m324.136 214.895h-.696c-.041-.2-.113-.376-.216-.527-.101-.152-.225-.279-.371-.382-.144-.104-.303-.183-.479-.235-.176-.053-.36-.079-.55-.079-.348 0-.663.088-.946.264-.281.176-.504.435-.671.777-.164.342-.246.762-.246 1.26s.082.918.246 1.26c.167.342.39.601.671.777.283.176.598.264.946.264.19 0 .374-.026.55-.079.176-.052.335-.13.479-.233.146-.104.27-.232.371-.384.103-.153.175-.329.216-.528h.696c-.053.294-.148.557-.286.789-.139.232-.311.429-.517.592-.205.161-.436.283-.693.368-.254.084-.526.126-.816.126-.49 0-.926-.12-1.308-.359-.381-.24-.682-.58-.901-1.022-.218-.441-.328-.965-.328-1.571s.11-1.13.328-1.571c.219-.442.52-.782.901-1.022.382-.239.818-.359 1.308-.359.29 0 .562.042.816.126.257.085.488.208.693.371.206.161.378.357.517.589.138.23.233.493.286.788z"/><path d="m373.739 89.1323c-.423.4563-1.202.8569-2.27.8569-2.015 0-3.205-1.38-3.205-3.0382s1.19-3.0382 3.205-3.0382c1.068 0 1.847.4007 2.27.857v-2.8936h1.336v7.9906h-1.336zm.067-2.2258c0-1.0684-.935-1.8808-2.148-1.8808-1.146 0-2.126.69-2.126 1.9253s.98 1.9253 2.126 1.9253c1.213 0 2.148-.8124 2.148-1.8808z"/><path d="m364.3 83.9136c1.847 0 3.327 1.2242 3.327 3.0382s-1.48 3.0382-3.327 3.0382c-1.859 0-3.339-1.2242-3.339-3.0382s1.48-3.0382 3.339-3.0382zm0 4.9301c1.135 0 2.047-.7011 2.047-1.8919s-.912-1.8919-2.047-1.8919c-1.147 0-2.059.7011-2.059 1.8919s.912 1.8919 2.059 1.8919z"/><path d="m354.035 89.8668v-7.9906h1.336v2.9158c.411-.4785 1.146-.8792 2.159-.8792 1.624 0 2.537 1.1352 2.537 2.7711v3.1829h-1.335v-2.9603c0-1.035-.535-1.7695-1.614-1.7695-1.135 0-1.747.7123-1.747 1.7918v2.938z"/><path d="m349.088 87.8644v-2.7044h-1.469v-1.1351h1.469v-1.7139h1.313v1.7139h2.571v1.1351h-2.571v2.582c0 .7567.412.9904 1.291.9904.49 0 .891-.1224 1.28-.2448l.223 1.1352c-.434.1669-1.147.3116-1.736.3116-1.247 0-2.371-.5008-2.371-2.07z"/><path d="m344.325 88.8548c.968 0 1.681-.4896 1.959-1.2019l1.068.5676c-.356.9126-1.458 1.7695-3.027 1.7695-1.947 0-3.372-1.2353-3.372-3.0382 0-1.7139 1.38-3.0382 3.372-3.0382 1.926 0 3.139 1.2798 3.139 2.9603v.4674h-5.242c.178.9348 1.013 1.5135 2.103 1.5135zm-.067-3.8283c-.923 0-1.725.4563-1.981 1.3132h3.896c-.089-.6121-.813-1.3132-1.915-1.3132z"/><path d="m335.432 89.8668h-1.157l-3.083-6.6996v6.6996h-1.391v-7.9906h2.203l2.872 6.2545 2.871-6.2545h2.159v7.9906h-1.391v-6.6996z"/><path d="m321.852 87.8644v-2.7044h-1.469v-1.1351h1.469v-1.7139h1.313v1.7139h2.571v1.1351h-2.571v2.582c0 .7567.412.9904 1.291.9904.49 0 .89-.1224 1.28-.2448l.222 1.1352c-.434.1669-1.146.3116-1.736.3116-1.246 0-2.37-.5008-2.37-2.07z"/><path d="m313.867 89.8676v-5.8427h1.336v.7679c.411-.4786 1.146-.8792 2.159-.8792 1.625 0 2.537 1.1351 2.537 2.7711v3.1829h-1.335v-2.9603c0-1.035-.535-1.7695-1.614-1.7695-1.135 0-1.747.7122-1.747 1.7917v2.9381z"/><path d="m309.808 88.8548c.968 0 1.68-.4896 1.958-1.2019l1.069.5676c-.356.9126-1.458 1.7695-3.027 1.7695-1.948 0-3.372-1.2353-3.372-3.0382 0-1.7139 1.38-3.0382 3.372-3.0382 1.925 0 3.138 1.2798 3.138 2.9603v.4674h-5.242c.178.9348 1.013 1.5135 2.104 1.5135zm-.067-3.8283c-.924 0-1.725.4563-1.981 1.3132h3.895c-.089-.6121-.812-1.3132-1.914-1.3132z"/><path d="m295.064 89.8676v-5.8427h1.336v.7456c.423-.4785 1.046-.8569 2.048-.8569.957 0 1.658.4117 2.047 1.0906.557-.6566 1.336-1.0906 2.371-1.0906 1.814 0 2.682 1.1351 2.682 2.8267v3.1273h-1.336v-2.9603c0-1.035-.456-1.7695-1.546-1.7695-1.147 0-1.692.7122-1.692 1.7917v2.9381h-1.336v-2.9603c0-1.035-.456-1.7695-1.546-1.7695-1.158 0-1.692.7122-1.692 1.7917v2.9381z"/><path d="m291.297 90.4122c-.579 1.1797-1.313 1.5469-2.371 1.5469-.434 0-.99-.1224-1.213-.2448l.267-1.124c.268.1335.535.2225.868.2225.501 0 1.013-.1446 1.291-.868l.067-.2003-2.927-5.7203h1.48l2.137 4.3737 2.081-4.3737h1.447z"/><path d="m283.159 89.99c-1.347 0-2.427-.6121-2.427-1.814 0-1.0239.846-1.636 2.248-1.8029l2.538-.3005v-.0445c0-.5565-.49-.9794-1.58-.9794-.902 0-1.692.4118-1.915.9794l-1.101-.4897c.367-.9793 1.647-1.6248 3.06-1.6248 1.803 0 2.827.7456 2.827 2.1367v2.4595c0 .3339.156.4786.868.3228v1.035c-1.247.2559-1.814-.2115-2.003-.7902-.523.5342-1.425.9126-2.515.9126zm2.359-2.3816v-.4897l-2.315.2782c-.779.0891-1.168.2783-1.168.7679 0 .4897.467.7457 1.235.7457 1.001 0 2.248-.4452 2.248-1.3021z"/><path d="m274.092 86.773v3.0938h-1.424v-7.9906h4.963c1.781 0 2.95.8347 2.95 2.4484 0 1.5914-1.169 2.4484-2.95 2.4484zm0-1.2242h3.462c1.023 0 1.624-.4452 1.624-1.2242 0-.7902-.601-1.2242-1.624-1.2242h-3.462z"/><path d="m264.719 87.8644v-2.7044h-1.469v-1.1351h1.469v-1.7139h1.313v1.7139h2.571v1.1351h-2.571v2.582c0 .7567.412.9904 1.291.9904.49 0 .891-.1224 1.28-.2448l.223 1.1352c-.434.1669-1.147.3116-1.737.3116-1.246 0-2.37-.5008-2.37-2.07z"/><path d="m256.801 86.9518c0-1.8029 1.491-3.0382 3.394-3.0382 1.525 0 2.615.8792 2.983 1.814l-1.069.6121c-.233-.6789-.968-1.291-1.925-1.291-1.191 0-2.103.7123-2.103 1.9031s.912 1.903 2.103 1.903c.957 0 1.692-.6121 1.925-1.2909l1.058.6343c-.379.9237-1.447 1.7918-2.972 1.7918-1.903 0-3.394-1.2353-3.394-3.0382z"/><path d="m253.044 88.8548c.968 0 1.68-.4896 1.959-1.2019l1.068.5676c-.356.9126-1.458 1.7695-3.027 1.7695-1.948 0-3.372-1.2353-3.372-3.0382 0-1.7139 1.38-3.0382 3.372-3.0382 1.925 0 3.138 1.2798 3.138 2.9603v.4674h-5.241c.178.9348 1.012 1.5135 2.103 1.5135zm-.067-3.8283c-.924 0-1.725.4563-1.981 1.3132h3.895c-.089-.6121-.812-1.3132-1.914-1.3132z"/><path d="m248.734 81.8762v7.9906h-1.336v-7.9906z"/><path d="m243.339 88.8548c.968 0 1.68-.4896 1.959-1.2019l1.068.5676c-.356.9126-1.458 1.7695-3.027 1.7695-1.948 0-3.372-1.2353-3.372-3.0382 0-1.7139 1.38-3.0382 3.372-3.0382 1.925 0 3.138 1.2798 3.138 2.9603v.4674h-5.241c.178.9348 1.012 1.5135 2.103 1.5135zm-.067-3.8283c-.924 0-1.725.4563-1.981 1.3132h3.895c-.089-.6121-.812-1.3132-1.914-1.3132z"/><path d="m230.926 87.9641 1.024-.946c.901 1.3355 2.348 1.7362 3.55 1.7362 1.435 0 2.47-.4786 2.47-1.1908 0-.8458-.667-.9126-3.004-1.1797-2.037-.2337-3.484-.5676-3.484-2.1256 0-1.4468 1.425-2.504 3.651-2.504 1.769 0 3.372.6677 4.05 1.7138l-1.023.8569c-.579-.8569-1.692-1.3354-3.083-1.3354-1.58 0-2.248.5453-2.248 1.124 0 .6343.512.7901 2.604 1.035 2.426.2782 3.929.5453 3.929 2.248 0 1.7028-1.725 2.5931-3.896 2.5931-1.969 0-3.795-.8124-4.54-2.0255z"/></g><rect fill="#ae91ff" height="26.2325" rx="13.1163" width="144.632" x="231.025" y="264.711"/><path d="m285.768 276.355h1.081l1.432 3.987 1.442-3.987h1.305l-2.185 5.568h-1.103l-1.463-3.893-1.453 3.893h-1.103l-2.196-5.568h1.347l1.474 3.987z" fill="#060316"/><path d="m278.344 276.249c1.76 0 3.171 1.166 3.171 2.895s-1.411 2.895-3.171 2.895c-1.771 0-3.182-1.166-3.182-2.895s1.411-2.895 3.182-2.895zm0 4.698c1.081 0 1.951-.668 1.951-1.803s-.87-1.803-1.951-1.803c-1.093 0-1.962.668-1.962 1.803s.869 1.803 1.962 1.803z" fill="#060316"/><path d="m268.562 281.923v-5.568h1.273v.731c.393-.456 1.093-.837 2.058-.837 1.548 0 2.418 1.081 2.418 2.64v3.034h-1.273v-2.821c0-.987-.509-1.687-1.538-1.687-1.082 0-1.665.679-1.665 1.708v2.8z" fill="#060316"/><path d="m262.217 282.442c-.551 1.124-1.251 1.474-2.259 1.474-.413 0-.944-.116-1.156-.233l.255-1.071c.254.127.509.212.827.212.477 0 .965-.138 1.23-.827l.064-.191-2.789-5.451h1.41l2.036 4.168 1.984-4.168h1.378z" fill="#060316"/><path d="m254.46 282.039c-1.283 0-2.312-.583-2.312-1.728 0-.976.806-1.559 2.143-1.719l2.418-.286v-.042c0-.531-.467-.934-1.506-.934-.859 0-1.612.393-1.824.934l-1.05-.467c.35-.933 1.569-1.548 2.916-1.548 1.718 0 2.694.71 2.694 2.036v2.344c0 .318.148.456.827.307v.987c-1.188.243-1.728-.202-1.909-.753-.498.509-1.357.869-2.397.869zm2.249-2.269v-.467l-2.206.265c-.743.085-1.114.265-1.114.732s.446.71 1.177.71c.955 0 2.143-.424 2.143-1.24z" fill="#060316"/><path d="m245.822 278.974v2.948h-1.357v-7.615h4.73c1.697 0 2.81.796 2.81 2.333 0 1.517-1.113 2.334-2.81 2.334zm0-1.167h3.299c.975 0 1.548-.424 1.548-1.167 0-.753-.573-1.166-1.548-1.166h-3.299z" fill="#060316"/><path d="m351.016 277.827c0-6.366 5.16-11.527 11.526-11.527 6.366 0 11.526 5.161 11.526 11.527 0 6.366-5.16 11.526-11.526 11.526-6.366 0-11.526-5.16-11.526-11.526z" fill="#4b007c"/><path clip-rule="evenodd" d="m357.674 277.612c0-.274.222-.497.497-.497h8.998c.275 0 .497.223.497.497 0 .275-.222.497-.497.497h-8.998c-.275 0-.497-.222-.497-.497z" fill="#fff" fill-rule="evenodd"/><path clip-rule="evenodd" d="m362.962 273.103c.194-.194.509-.194.703 0l4.109 4.11c.094.093.146.22.146.351 0 .132-.052.258-.146.352l-4.109 4.109c-.194.194-.509.194-.703 0s-.194-.508 0-.702l3.758-3.759-3.758-3.758c-.194-.194-.194-.509 0-.703z" fill="#fff" fill-rule="evenodd"/><path d="m231.025 277.827c0-7.244 5.873-13.116 13.117-13.116h118.444c7.244 0 13.116 5.872 13.116 13.116 0 7.244-5.872 13.116-13.116 13.116h-118.444c-7.244 0-13.117-5.872-13.117-13.116z" fill="#fff" opacity=".7"/><path d="m263.617 301.278c0-1.317 1.068-2.384 2.385-2.384h75.518c1.317 0 2.385 1.067 2.385 2.384 0 1.317-1.068 2.385-2.385 2.385h-75.518c-1.317 0-2.385-1.068-2.385-2.385z" fill="#f5eeeb"/><path d="m114.172 70.7488c0-3.5122 2.847-6.3594 6.359-6.3594h84.262c3.513 0 6.36 2.8472 6.36 6.3594v234.5032c0 3.512-2.847 6.359-6.36 6.359h-84.262c-3.512 0-6.359-2.847-6.359-6.359z" fill="#4b007c"/><g clip-path="url(#a)"><path clip-rule="evenodd" d="m127.616 83.4673h9.001c.84 0 1.52.6806 1.52 1.5201v9.0012c0 .8396-.68 1.5202-1.52 1.5202h-9.001c-.84 0-1.52-.6806-1.52-1.5202v-9.0012c0-.8395.68-1.5201 1.52-1.5201zm1.252 4.1479c-.806 0-1.405-.6038-1.405-1.4209 0-.7719.63-1.4004 1.402-1.4004h6.476c.773 0 1.404.6269 1.404 1.4004s-.631 1.4036-1.406 1.4036l-2.753.0173zm5.706.4584c.773 0 1.402.6301 1.402 1.4036 0 .7719-.629 1.4004-1.402 1.4004h-2.443c-.774 0-1.402-.6269-1.402-1.4004s.628-1.4036 1.402-1.4036zm-4.266 1.5313v-.1213c0-.7924-.643-1.4335-1.434-1.4335-.792 0-1.433.6427-1.433 1.4335v3.2593c0 .7955.644 1.4398 1.44 1.4398h6.477c.793 0 1.434-.6427 1.434-1.4335 0-.7924-.643-1.4335-1.434-1.4335h-3.341c-.935 0-1.709-.7813-1.709-1.7108z" fill="#fff" fill-rule="evenodd"/><g clip-path="url(#b)"><path d="m151.122 90.2973h1.354c-.182 1.1558-1.033 1.88-2.314 1.88-1.49 0-2.396-.9489-2.396-2.4733 0-1.4953.951-2.4733 2.442-2.4733 1.279 0 2.075.7145 2.259 1.8623h-1.345c-.11-.4801-.429-.7808-.932-.7808-.676 0-1.106.5739-1.106 1.3918 0 .8277.429 1.3919 1.106 1.3919.503 0 .841-.3104.932-.8002zm6.675-.5917c0 1.4954-.977 2.4734-2.477 2.4734s-2.479-.9877-2.479-2.4734c0-1.4856.978-2.4733 2.477-2.4733 1.5 0 2.478.9877 2.479 2.4733zm-1.308 0c0-.8179-.448-1.3918-1.171-1.3918s-1.161.5739-1.161 1.3918c0 .818.438 1.3919 1.161 1.3919s1.171-.5739 1.171-1.3919zm7.325-2.4733c-.714 0-1.263.3007-1.591.818-.293-.6111-.832-.8277-1.409-.818-.685.0097-1.097.2829-1.38.658l-.12-.6014h-1.125v4.8335h1.29v-2.6334c0-.7242.365-1.1655.923-1.1655s.824.3767.824 1.1009v2.698h1.289v-2.6431c0-.7339.374-1.1558.932-1.1558s.815.3767.815 1.1009v2.698h1.289v-2.774c0-1.5519-.769-2.1161-1.739-2.1161zm7.986 0c-.714 0-1.263.3007-1.591.818-.293-.6111-.832-.8277-1.409-.818-.685.0097-1.097.2829-1.38.658l-.12-.6014h-1.125v4.8335h1.29v-2.6334c0-.7242.365-1.1655.923-1.1655s.824.3767.824 1.1009v2.698h1.289v-2.6431c0-.7339.374-1.1558.932-1.1558s.815.3767.815 1.1009v2.698h1.289v-2.774c0-1.5519-.769-2.1161-1.739-2.1161zm7.247 2.483c0 1.5051-.915 2.4637-2.176 2.4637-.649 0-1.116-.2732-1.418-.6677v2.4911h-1.289v-6.7135h1.124l.127.6676c.302-.4138.777-.7242 1.445-.7242 1.272-.0097 2.185.9586 2.187 2.483zm-1.308-.0194c0-.8179-.458-1.3821-1.162-1.3821s-1.143.5642-1.143 1.3821c0 .8277.439 1.4016 1.143 1.4016s1.162-.5739 1.162-1.4016zm5.452-2.407h1.125v4.8335h-1.29v-.6111c-.302.3945-.768.6677-1.417.6677-1.262 0-2.176-.9586-2.176-2.4637 0-1.5227.915-2.4911 2.187-2.483.668 0 1.143.3104 1.445.7242zm-.147 2.407c0-.8179-.438-1.3821-1.143-1.3821-.704 0-1.161.5642-1.161 1.3821 0 .8277.457 1.4016 1.161 1.4016.705 0 1.143-.5739 1.143-1.4016zm5.267-2.407-1.116 3.4416-1.143-3.4416h-1.373l1.811 4.8626-.119.3201c-.128.3297-.238.4138-.568.4138h-.713v1.1186h1.253c.731 0 .969-.3944 1.262-1.1946l2.084-5.5205zm-43.217-.0566c-1.491 0-2.442.978-2.442 2.4733 0 1.5228.906 2.4734 2.396 2.4734 1.207 0 2.025-.6499 2.269-1.6926h-1.373c-.137.3735-.437.6111-.868.6111-.676 0-1.106-.5642-1.106-1.3919 0-.8179.429-1.3918 1.106-1.3918.483 0 .843.2328.994.7242.009.0356.025.0647.031.1035h-1.51c-.233 0-.422.194-.422.4332 0 .2393.189.4332.422.4332h2.773c.037-.7274-.043-1.0491-.054-1.0895-.236-1.0395-1.006-1.6861-2.216-1.6861z" fill="#fff"/></g></g><path d="m168.375 110.949c2.646 0 4.645 1.783 4.645 4.202s-1.999 4.201-4.645 4.201c-2.657 0-4.645-1.782-4.645-4.201s1.988-4.202 4.645-4.202zm0 1.283c-1.874 0-3.168 1.181-3.168 2.919 0 1.737 1.294 2.918 3.168 2.918 1.863 0 3.157-1.181 3.157-2.918 0-1.738-1.294-2.919-3.157-2.919z" fill="#fff"/><path d="m158.516 110.949c2.646 0 4.644 1.783 4.644 4.202s-1.998 4.201-4.644 4.201c-2.658 0-4.645-1.782-4.645-4.201s1.987-4.202 4.645-4.202zm0 1.283c-1.874 0-3.169 1.181-3.169 2.919 0 1.737 1.295 2.918 3.169 2.918 1.862 0 3.157-1.181 3.157-2.918 0-1.738-1.295-2.919-3.157-2.919z" fill="#fff"/><path d="m152.057 119.228v-1.646h1.646v1.646z" fill="#fff"/><path d="m147.413 119.352c-2.271 0-3.94-1.022-4.36-2.498l1.306-.545c.352 1.033 1.487 1.817 3.043 1.817 1.522 0 2.623-.488 2.623-1.329 0-.851-1.067-1.158-2.35-1.158h-1.488v-1.226h1.465c1.283 0 2.089-.352 2.089-1.079 0-.716-.885-1.159-2.248-1.159-1.51 0-2.567.727-2.884 1.681l-1.295-.431c.409-1.352 1.874-2.476 4.224-2.476 2.283 0 3.702.954 3.702 2.283 0 .829-.533 1.51-1.499 1.748 1.113.25 1.772.875 1.772 1.908 0 1.306-1.567 2.464-4.1 2.464z" fill="#fff"/><path d="m135.029 118.047 3.941-2.192c1.442-.806 2.316-1.204 2.316-2.192 0-.897-.919-1.476-2.157-1.476-1.601 0-2.68.908-2.907 2.203l-1.318-.364c.375-1.771 1.851-3.077 4.293-3.077 2.044 0 3.52 1.09 3.52 2.703 0 1.34-1.101 2.089-2.702 2.964l-2.453 1.34h5.348v1.272h-7.881z" fill="#fff"/><path d="m130.513 119.352c-2.271 0-3.94-1.022-4.361-2.498l1.306-.545c.352 1.033 1.488 1.817 3.044 1.817 1.521 0 2.623-.488 2.623-1.329 0-.851-1.067-1.158-2.351-1.158h-1.487v-1.226h1.465c1.283 0 2.089-.352 2.089-1.079 0-.716-.886-1.159-2.248-1.159-1.511 0-2.567.727-2.885 1.681l-1.294-.431c.408-1.352 1.873-2.476 4.224-2.476 2.283 0 3.702.954 3.702 2.283 0 .829-.534 1.51-1.499 1.748 1.113.25 1.772.875 1.772 1.908 0 1.306-1.568 2.464-4.1 2.464z" fill="#fff"/><path d="m184.616 117.3v1.368h-.436v-3.262h2.039c.682 0 1.154.323 1.154.945 0 .522-.345.845-.872.927l.94 1.39h-.5l-.917-1.368zm0-.377h1.581c.463 0 .749-.204.749-.572s-.286-.568-.749-.568h-1.581z" fill="#fff"/><path d="m181.983 118.713c-1.072 0-1.635-.599-1.635-1.594v-1.713h.431v1.699c0 .768.391 1.217 1.204 1.217s1.199-.449 1.199-1.217v-1.699h.436v1.713c0 .995-.568 1.594-1.635 1.594z" fill="#fff"/><path d="m176.918 115.406h3.025v.382h-2.598v1.004h2.339v.381h-2.339v1.113h2.598v.382h-3.025z" fill="#fff"/><path d="m126.096 216.22c0-1.317 1.067-2.385 2.384-2.385h55.645c1.317 0 2.385 1.068 2.385 2.385 0 1.317-1.068 2.385-2.385 2.385h-55.645c-1.317 0-2.384-1.068-2.384-2.385z" fill="#5f1e96"/><path d="m126.096 225.76c0-1.317 1.067-2.385 2.384-2.385h55.645c1.317 0 2.385 1.068 2.385 2.385 0 1.317-1.068 2.385-2.385 2.385h-55.645c-1.317 0-2.384-1.068-2.384-2.385z" fill="#5f1e96"/><path d="m126.096 244.838c0-1.318 1.067-2.385 2.384-2.385h55.645c1.317 0 2.385 1.067 2.385 2.385 0 1.317-1.068 2.384-2.385 2.384h-55.645c-1.317 0-2.384-1.067-2.384-2.384z" fill="#5f1e96"/><path d="m126.096 273.455c0-1.317 1.067-2.385 2.384-2.385h55.645c1.317 0 2.385 1.068 2.385 2.385 0 1.317-1.068 2.385-2.385 2.385h-55.645c-1.317 0-2.384-1.068-2.384-2.385z" fill="#5f1e96"/><path d="m126.096 282.995c0-1.318 1.067-2.385 2.384-2.385h55.645c1.317 0 2.385 1.067 2.385 2.385 0 1.317-1.068 2.384-2.385 2.384h-55.645c-1.317 0-2.384-1.067-2.384-2.384z" fill="#5f1e96"/><path d="m126.096 292.533c0-1.317 1.067-2.385 2.384-2.385h46.901c1.317 0 2.385 1.068 2.385 2.385 0 1.317-1.068 2.385-2.385 2.385h-46.901c-1.317 0-2.384-1.068-2.384-2.385z" fill="#5f1e96"/><path d="m126.096 254.377c0-1.317 1.067-2.385 2.384-2.385h30.208c1.317 0 2.384 1.068 2.384 2.385 0 1.317-1.067 2.385-2.384 2.385h-30.208c-1.317 0-2.384-1.068-2.384-2.385z" fill="#5f1e96"/><path d="m126.096 235.298c0-1.317 1.067-2.385 2.384-2.385h44.516c1.317 0 2.385 1.068 2.385 2.385 0 1.317-1.068 2.385-2.385 2.385h-44.516c-1.317 0-2.384-1.068-2.384-2.385z" fill="#5f1e96"/><path d="m126.096 263.915c0-1.317 1.067-2.384 2.384-2.384h44.516c1.317 0 2.385 1.067 2.385 2.384 0 1.317-1.068 2.385-2.385 2.385h-44.516c-1.317 0-2.384-1.068-2.384-2.385z" fill="#5f1e96"/></svg>